<svg width="18" height="18" viewBox="0 0 18 18" fill="none" xmlns="http://www.w3.org/2000/svg">
<path d="M11.2505 11.9998V10.4997C11.588 10.3324 12.5533 9.18338 12.6545 8.2856C12.92 8.26534 13.3371 8.02158 13.4601 7.05929C13.5261 6.54252 13.2636 6.25226 13.1045 6.16076C13.1045 6.16076 13.5006 5.40848 13.5006 4.50019C13.5006 2.67911 12.7858 1.12505 11.2505 1.12505C11.2505 1.12505 10.7172 0 9.00037 0C5.81874 0 4.50019 2.04084 4.50019 4.50019C4.50019 5.32822 4.8962 6.16076 4.8962 6.16076C4.7372 6.25226 4.47469 6.54327 4.54069 7.05929C4.66369 8.02158 5.08071 8.26534 5.34622 8.2856C5.44748 9.18338 6.41277 10.3324 6.75028 10.4997V11.9998C6.00025 14.2498 0 12.7498 0 18H18.0007C18.0007 12.7498 12.0005 14.2498 11.2505 11.9998Z" fill="#7DBA28"/>
</svg>
