<svg width="30" height="30" viewBox="0 0 30 30" fill="none" xmlns="http://www.w3.org/2000/svg">
<g clip-path="url(#clip0_3669_34376)">
<path d="M29.9999 11.7236H0V5.68914C0 5.4035 0.231621 5.17188 0.517265 5.17188H29.4827C29.7684 5.17188 30 5.4035 30 5.68914L29.9999 11.7236Z" fill="#82AFFF"/>
<path d="M29.4827 24.8271H0.517265C0.231621 24.8271 0 24.5955 0 24.3098V18.2754H29.9999V24.3098C29.9999 24.5955 29.7683 24.8271 29.4827 24.8271Z" fill="#73AF00"/>
<path d="M29.9999 11.7246H0V18.276H29.9999V11.7246Z" fill="#F5F5F5"/>
<path d="M29.9999 11.1426H0V11.9595H29.9999V11.1426Z" fill="#FF4B55"/>
<path d="M29.9999 18.041H0V18.8579H29.9999V18.041Z" fill="#FF4B55"/>
<path d="M6.64985 10.0839C5.59095 10.0839 4.73261 9.22758 4.73261 8.17248C4.73261 7.11352 5.59089 6.25336 6.64985 6.25336C6.65395 6.25336 6.65794 6.25336 6.66192 6.25342C6.72426 6.25424 6.74612 6.17145 6.69116 6.14197C6.36509 5.96719 5.99296 5.86828 5.59733 5.87115C4.3303 5.88018 3.30111 6.93012 3.31458 8.19715C3.32783 9.45111 4.35298 10.4661 5.61392 10.4661C6.00409 10.4661 6.371 10.3674 6.69303 10.195C6.74782 10.1657 6.72567 10.0829 6.66356 10.0837C6.65887 10.0839 6.65436 10.0839 6.64985 10.0839Z" fill="#F5F5F5"/>
<path d="M8.15032 9.55617L8.06471 9.81292L7.79407 9.81498C7.75903 9.81521 7.7445 9.85998 7.77268 9.88078L7.99042 10.0416L7.90874 10.2996C7.89819 10.333 7.93622 10.3607 7.96475 10.3403L8.18495 10.1829L8.40514 10.3403C8.43368 10.3607 8.47164 10.333 8.46116 10.2996L8.37948 10.0416L8.59715 9.88078C8.62534 9.85998 8.6108 9.81521 8.57577 9.81498L8.30512 9.81292L8.21952 9.55617C8.20844 9.52294 8.16145 9.52294 8.15032 9.55617Z" fill="#F5F5F5"/>
<path d="M10.0566 9.55617L9.97096 9.81292L9.70032 9.81498C9.66528 9.81521 9.65075 9.85998 9.67893 9.88078L9.89661 10.0416L9.81493 10.2996C9.80438 10.333 9.84241 10.3607 9.87094 10.3403L10.0911 10.1829L10.3113 10.3403C10.3399 10.3607 10.3778 10.333 10.3674 10.2996L10.2857 10.0416L10.5033 9.88078C10.5315 9.85998 10.517 9.81521 10.482 9.81498L10.2113 9.81292L10.1257 9.55617C10.1146 9.52294 10.0676 9.52294 10.0566 9.55617Z" fill="#F5F5F5"/>
<path d="M11.9648 9.55617L11.8792 9.81292L11.6085 9.81498C11.5735 9.81521 11.559 9.85998 11.5871 9.88078L11.8049 10.0416L11.7232 10.2996C11.7126 10.333 11.7507 10.3607 11.7792 10.3403L11.9994 10.1829L12.2196 10.3403C12.2481 10.3607 12.2861 10.333 12.2756 10.2996L12.1939 10.0416L12.4116 9.88078C12.4398 9.85998 12.4253 9.81521 12.3902 9.81498L12.1196 9.81292L12.034 9.55617C12.0229 9.52294 11.9758 9.52294 11.9648 9.55617Z" fill="#F5F5F5"/>
<path d="M13.871 9.55617L13.7854 9.81292L13.5148 9.81498C13.4797 9.81521 13.4652 9.85998 13.4934 9.88078L13.7111 10.0416L13.6294 10.2996C13.6188 10.333 13.6569 10.3607 13.6854 10.3403L13.9056 10.1829L14.1258 10.3403C14.1543 10.3607 14.1923 10.333 14.1818 10.2996L14.1001 10.0416L14.3178 9.88078C14.346 9.85998 14.3314 9.81521 14.2964 9.81498L14.0258 9.81292L13.9402 9.55617C13.9291 9.52294 13.8821 9.52294 13.871 9.55617Z" fill="#F5F5F5"/>
<path d="M15.7792 9.55617L15.6936 9.81292L15.423 9.81498C15.3879 9.81521 15.3734 9.85998 15.4016 9.88078L15.6193 10.0416L15.5376 10.2996C15.5271 10.333 15.5651 10.3607 15.5937 10.3403L15.8139 10.1829L16.034 10.3403C16.0626 10.3607 16.1006 10.333 16.0901 10.2996L16.0084 10.0416L16.2261 9.88078C16.2543 9.85998 16.2398 9.81521 16.2047 9.81498L15.9341 9.81292L15.8485 9.55617C15.8373 9.52294 15.7903 9.52294 15.7792 9.55617Z" fill="#F5F5F5"/>
<path d="M10.0566 7.775L9.97096 8.03176L9.70032 8.03381C9.66528 8.03405 9.65075 8.07881 9.67893 8.09961L9.89661 8.2604L9.81493 8.51844C9.80438 8.55184 9.84241 8.5795 9.87094 8.55911L10.0911 8.40172L10.3113 8.55911C10.3399 8.5795 10.3778 8.55184 10.3674 8.51844L10.2857 8.2604L10.5033 8.09961C10.5315 8.07881 10.517 8.03405 10.482 8.03381L10.2113 8.03176L10.1257 7.775C10.1146 7.74167 10.0676 7.74167 10.0566 7.775Z" fill="#F5F5F5"/>
<path d="M11.9648 7.775L11.8792 8.03176L11.6085 8.03381C11.5735 8.03405 11.559 8.07881 11.5871 8.09961L11.8049 8.2604L11.7232 8.51844C11.7126 8.55184 11.7507 8.5795 11.7792 8.55911L11.9994 8.40172L12.2196 8.55911C12.2481 8.5795 12.2861 8.55184 12.2756 8.51844L12.1939 8.2604L12.4116 8.09961C12.4398 8.07881 12.4253 8.03405 12.3902 8.03381L12.1196 8.03176L12.034 7.775C12.0229 7.74167 11.9758 7.74167 11.9648 7.775Z" fill="#F5F5F5"/>
<path d="M13.871 7.775L13.7854 8.03176L13.5148 8.03381C13.4797 8.03405 13.4652 8.07881 13.4934 8.09961L13.7111 8.2604L13.6294 8.51844C13.6188 8.55184 13.6569 8.5795 13.6854 8.55911L13.9056 8.40172L14.1258 8.55911C14.1543 8.5795 14.1923 8.55184 14.1818 8.51844L14.1001 8.2604L14.3178 8.09961C14.346 8.07881 14.3314 8.03405 14.2964 8.03381L14.0258 8.03176L13.9402 7.775C13.9291 7.74167 13.8821 7.74167 13.871 7.775Z" fill="#F5F5F5"/>
<path d="M15.7792 7.775L15.6936 8.03176L15.423 8.03381C15.3879 8.03405 15.3734 8.07881 15.4016 8.09961L15.6193 8.2604L15.5376 8.51844C15.5271 8.55184 15.5651 8.5795 15.5937 8.55911L15.8139 8.40172L16.034 8.55911C16.0626 8.5795 16.1006 8.55184 16.0901 8.51844L16.0084 8.2604L16.2261 8.09961C16.2543 8.07881 16.2398 8.03405 16.2047 8.03381L15.9341 8.03176L15.8485 7.775C15.8373 7.74167 15.7903 7.74167 15.7792 7.775Z" fill="#F5F5F5"/>
<path d="M11.9648 9.55617L11.8792 9.81292L11.6085 9.81498C11.5735 9.81521 11.559 9.85998 11.5871 9.88078L11.8049 10.0416L11.7232 10.2996C11.7126 10.333 11.7507 10.3607 11.7792 10.3403L11.9994 10.1829L12.2196 10.3403C12.2481 10.3607 12.2861 10.333 12.2756 10.2996L12.1939 10.0416L12.4116 9.88078C12.4398 9.85998 12.4253 9.81521 12.3902 9.81498L12.1196 9.81292L12.034 9.55617C12.0229 9.52294 11.9758 9.52294 11.9648 9.55617Z" fill="#F5F5F5"/>
<path d="M11.9648 5.99562L11.8792 6.25238L11.6085 6.25443C11.5735 6.25466 11.559 6.29943 11.5871 6.32023L11.8049 6.48101L11.7232 6.73906C11.7126 6.77245 11.7507 6.80011 11.7792 6.77972L11.9994 6.62234L12.2196 6.77972C12.2481 6.80011 12.2861 6.77245 12.2756 6.73906L12.1939 6.48101L12.4116 6.32023C12.4398 6.29943 12.4253 6.25466 12.3902 6.25443L12.1196 6.25238L12.034 5.99562C12.0229 5.9624 11.9758 5.9624 11.9648 5.99562Z" fill="#F5F5F5"/>
<path d="M13.871 9.55617L13.7854 9.81292L13.5148 9.81498C13.4797 9.81521 13.4652 9.85998 13.4934 9.88078L13.7111 10.0416L13.6294 10.2996C13.6188 10.333 13.6569 10.3607 13.6854 10.3403L13.9056 10.1829L14.1258 10.3403C14.1543 10.3607 14.1923 10.333 14.1818 10.2996L14.1001 10.0416L14.3178 9.88078C14.346 9.85998 14.3314 9.81521 14.2964 9.81498L14.0258 9.81292L13.9402 9.55617C13.9291 9.52294 13.8821 9.52294 13.871 9.55617Z" fill="#F5F5F5"/>
<path d="M15.7792 9.55617L15.6936 9.81292L15.423 9.81498C15.3879 9.81521 15.3734 9.85998 15.4016 9.88078L15.6193 10.0416L15.5376 10.2996C15.5271 10.333 15.5651 10.3607 15.5937 10.3403L15.8139 10.1829L16.034 10.3403C16.0626 10.3607 16.1006 10.333 16.0901 10.2996L16.0084 10.0416L16.2261 9.88078C16.2543 9.85998 16.2398 9.81521 16.2047 9.81498L15.9341 9.81292L15.8485 9.55617C15.8373 9.52294 15.7903 9.52294 15.7792 9.55617Z" fill="#F5F5F5"/>
<path d="M13.871 5.99562L13.7854 6.25238L13.5148 6.25443C13.4797 6.25466 13.4652 6.29943 13.4934 6.32023L13.7111 6.48101L13.6294 6.73906C13.6188 6.77245 13.6569 6.80011 13.6854 6.77972L13.9056 6.62234L14.1258 6.77972C14.1543 6.80011 14.1923 6.77245 14.1818 6.73906L14.1001 6.48101L14.3178 6.32023C14.346 6.29943 14.3314 6.25466 14.2964 6.25443L14.0258 6.25238L13.9402 5.99562C13.9291 5.9624 13.8821 5.9624 13.871 5.99562Z" fill="#F5F5F5"/>
<path d="M15.7792 5.99562L15.6936 6.25238L15.423 6.25443C15.3879 6.25466 15.3734 6.29943 15.4016 6.32023L15.6193 6.48101L15.5376 6.73906C15.5271 6.77245 15.5651 6.80011 15.5937 6.77972L15.8139 6.62234L16.034 6.77972C16.0626 6.80011 16.1006 6.77245 16.0901 6.73906L16.0084 6.48101L16.2261 6.32023C16.2543 6.29943 16.2398 6.25466 16.2047 6.25443L15.9341 6.25238L15.8485 5.99562C15.8373 5.9624 15.7903 5.9624 15.7792 5.99562Z" fill="#F5F5F5"/>
</g>
<defs>
<clipPath id="clip0_3669_34376">
<rect width="30" height="30" fill="white"/>
</clipPath>
</defs>
</svg>
